<svg width="38" height="40" viewBox="0 0 38 40" fill="none" xmlns="http://www.w3.org/2000/svg">
<path d="M10.0533 24.6409V30.75H19V24.6409H14.4201H10.0533Z" fill="#F50000"/>
<path d="M5.15385 24.6409H10.0533H14.4201V18.8227H9.20118H5.15385V24.6409Z" fill="#F50000"/>
<path d="M9.20118 18.8227H14.4201H18.5906V12.7136H13.8959H9.20118V18.8227Z" fill="#F50000"/>
<path d="M14.4201 24.6409H19H23.5L23.4601 18.8227H18.5906H14.4201V24.6409Z" fill="#F50000"/>
<path d="M19 24.6409V30.75H28V24.6409H23.5H19Z" fill="#F50000"/>
<path d="M28 24.6409H32.5V18.8227H27.98H23.4601L23.5 24.6409H28Z" fill="#F50000"/>
<path d="M13.8959 12.7136H18.5906H22.8343V6.75H13.8959V12.7136Z" fill="#F50000"/>
<path d="M23.4601 18.8227H27.98V12.7136H22.8343H18.5906V18.8227H23.4601Z" fill="#F50000"/>
<path d="M1 24.6409V30.75H10.0533V24.6409H5.15385H1Z" fill="#F50000"/>
<path d="M37 30.75V24.6409H32.5H28V30.75H37Z" fill="#F50000"/>
<path d="M10.0533 30.75H1V24.6409H5.15385M10.0533 30.75V24.6409M10.0533 30.75H19M10.0533 24.6409H5.15385M10.0533 24.6409H14.4201M19 24.6409V30.75M19 24.6409H14.4201M19 24.6409H23.5M19 30.75H28M28 30.75H37V24.6409H32.5M28 30.75V24.6409M28 24.6409H32.5M28 24.6409H23.5M32.5 24.6409V18.8227H27.98M5.15385 24.6409V18.8227H9.20118M14.4201 18.8227V24.6409M14.4201 18.8227H9.20118M14.4201 18.8227H18.5906M23.4601 18.8227L23.5 24.6409M23.4601 18.8227H27.98M23.4601 18.8227H18.5906M27.98 18.8227V12.7136H22.8343M9.20118 18.8227V12.7136H13.8959M18.5906 12.7136V18.8227M18.5906 12.7136H13.8959M18.5906 12.7136H22.8343M13.8959 12.7136V6.75H22.8343V12.7136" stroke="white" stroke-width="1.5"/>
</svg>
