<svg width="20" height="20" viewBox="0 0 20 20" fill="none" xmlns="http://www.w3.org/2000/svg">
<path d="M15.2663 0H12.8826C10.1457 0 8.3799 1.94444 8.3799 4.90741V7.22222H5.90784C5.73126 7.22222 5.55469 7.40741 5.55469 7.59259V10.9259C5.55469 11.1111 5.73126 11.2963 5.90784 11.2963H8.3799V19.6296C8.3799 19.8148 8.55647 20 8.73305 20H11.9114C12.088 20 12.2646 19.8148 12.2646 19.6296V11.2963H15.0898C15.2663 11.2963 15.4429 11.1111 15.4429 10.9259V7.59259C15.4429 7.5 15.4429 7.40741 15.3546 7.31481C15.2663 7.22222 15.1781 7.22222 15.0898 7.22222H12.2646V5.27778C12.2646 4.35185 12.4411 3.88889 13.5889 3.88889H15.1781C15.3546 3.88889 15.5312 3.7037 15.5312 3.51852V0.462963C15.6195 0.185185 15.4429 0 15.2663 0Z" fill="#475993"/>
</svg>
