<svg width="20" height="20" viewBox="0 0 20 20" fill="none" xmlns="http://www.w3.org/2000/svg">
<path d="M14.4444 0H5.55556C2.44444 0 0 2.44444 0 5.55556V14.4444C0 17.4444 2.44444 20 5.55556 20H14.4444C17.4444 20 20 17.5556 20 14.4444V5.55556C20 2.44444 17.5556 0 14.4444 0ZM18.2222 14.4444C18.2222 16.5556 16.5556 18.2222 14.4444 18.2222H5.55556C3.44444 18.2222 1.77778 16.5556 1.77778 14.4444V5.55556C1.77778 3.44444 3.44444 1.77778 5.55556 1.77778H14.4444C16.5556 1.77778 18.2222 3.44444 18.2222 5.55556V14.4444Z" fill="url(#paint0_linear)"/>
<path d="M10.0017 4.88867C7.11285 4.88867 4.89062 7.22201 4.89062 9.99978C4.89062 12.8887 7.22396 15.1109 10.0017 15.1109C12.7795 15.1109 15.1128 12.7776 15.1128 9.99978C15.1128 7.11089 12.8906 4.88867 10.0017 4.88867ZM10.0017 13.3331C8.11285 13.3331 6.6684 11.7776 6.6684 9.99978C6.6684 8.11089 8.22396 6.66645 10.0017 6.66645C11.7795 6.66645 13.3351 8.22201 13.3351 9.99978C13.3351 11.8887 11.8906 13.3331 10.0017 13.3331Z" fill="url(#paint1_linear)"/>
<path d="M15.3316 3.3335C14.9983 3.3335 14.6649 3.44461 14.4427 3.66683C14.2205 3.88905 14.1094 4.22239 14.1094 4.55572C14.1094 4.88905 14.2205 5.22238 14.4427 5.44461C14.6649 5.66683 14.9983 5.77794 15.3316 5.77794C15.6649 5.77794 15.9983 5.66683 16.2205 5.44461C16.5538 5.3335 16.6649 5.00016 16.6649 4.66683C16.6649 4.3335 16.5538 4.00016 16.3316 3.77794C16.1094 3.44461 15.6649 3.3335 15.3316 3.3335Z" fill="#4E4BF8"/>
<defs>
<linearGradient id="paint0_linear" x1="10" y1="20" x2="10" y2="0" gradientUnits="userSpaceOnUse">
<stop stop-color="#FFD600"/>
<stop offset="0.192708" stop-color="#FF0095"/>
<stop offset="0.347092" stop-color="#F2069C"/>
<stop offset="0.481129" stop-color="#CF14B0"/>
<stop offset="0.813" stop-color="#962CCF"/>
<stop offset="0.9753" stop-color="#494DFA"/>
<stop offset="0.9951" stop-color="#3F51FF"/>
</linearGradient>
<linearGradient id="paint1_linear" x1="10.0017" y1="20.5554" x2="10.0017" y2="4.88867" gradientUnits="userSpaceOnUse">
<stop stop-color="#FFD600"/>
<stop offset="0.5271" stop-color="#FF0095"/>
<stop offset="0.5802" stop-color="#F2069C"/>
<stop offset="0.6791" stop-color="#CF14B0"/>
<stop offset="0.813" stop-color="#962CCF"/>
<stop offset="0.9753" stop-color="#494DFA"/>
<stop offset="0.9951" stop-color="#3F51FF"/>
</linearGradient>
</defs>
</svg>
