<svg width="20" height="20" viewBox="0 0 20 20" fill="none" xmlns="http://www.w3.org/2000/svg">
<path d="M9.96881 3.08411C11.0594 3.08411 12.0591 4.01869 12.0591 5.23364C12.0591 6.35514 11.1503 7.38318 9.96881 7.38318C8.87824 7.38318 7.87856 6.4486 7.87856 5.23364C7.87856 4.01869 8.87824 3.08411 9.96881 3.08411ZM9.96881 10.2804C12.6952 10.2804 14.9673 8.03738 14.9673 5.14019C14.9673 2.33645 12.7861 0 9.96881 0C7.24239 0 4.97037 2.24299 4.97037 5.14019C4.97037 8.03738 7.24239 10.2804 9.96881 10.2804ZM11.9682 14.486C12.9679 14.2056 13.9676 13.8318 14.8764 13.271C15.5125 12.8037 15.7852 11.8692 15.3308 11.215C14.8764 10.5607 13.9676 10.2804 13.3314 10.7477C11.332 12.0561 8.69648 12.0561 6.69711 10.7477C6.06094 10.2804 5.15213 10.5607 4.69773 11.215C4.24333 11.8692 4.42509 12.8037 5.06125 13.271C5.97006 13.8318 6.96975 14.2991 7.96944 14.486L5.15213 17.3832C4.60685 17.9439 4.60685 18.8785 5.15213 19.5327C5.42478 19.8131 5.7883 20 6.15182 20C6.51535 20 6.87887 19.8131 7.15151 19.5327L9.87793 16.729L12.6044 19.5327C13.1496 20.0935 14.0584 20.0935 14.6946 19.5327C15.2399 18.972 15.2399 18.0374 14.6946 17.3832L11.9682 14.486Z" fill="#FF9800"/>
</svg>
