<svg width="36" height="40" viewBox="0 0 36 40" fill="none" xmlns="http://www.w3.org/2000/svg">
<path fill-rule="evenodd" clip-rule="evenodd" d="M30.8037 30.8517H4.69141C4.69141 30.8517 7.54162 22.4103 9.5649 17.0735C11.008 13.2671 13.4156 7.38672 13.4156 7.38672H22.0194C22.0194 7.38672 24.5752 13.2509 26.0506 17.0735C28.1 22.3837 30.8037 30.8517 30.8037 30.8517ZM16.0626 26.3997H19.4921L19.8531 30.0097H15.8821L16.0626 26.3997ZM18.978 20.9845H16.3799L16.2432 24.3538H19.2515L18.978 20.9845ZM16.7082 16.4116H18.6827L18.8906 19.2996H16.6042L16.7082 16.4116ZM18.5955 13.0428H16.9327L16.8452 15.5698H18.7705L18.5955 13.0428ZM17.1456 10.0341H18.2888L18.4091 11.8391H17.0854L17.1456 10.0341ZM18.1908 7.7478H17.2555L17.2063 9.07147H18.2893L18.1908 7.7478Z" fill="#F50000"/>
<path d="M33.8736 30.8518L24.0664 7.38679C24.7884 7.36674 26.2805 7.44696 26.4731 7.92829C26.6656 8.40963 32.57 22.248 35.4981 29.1069C35.6184 29.4078 35.7387 30.0696 35.2574 30.3103C34.7761 30.5509 34.1343 30.7716 33.8736 30.8518Z" fill="#F50000"/>
<path d="M1.7319 30.8518L11.5391 7.38679C10.8171 7.36674 9.32493 7.44696 9.1324 7.92829C8.93986 8.40963 3.03551 22.248 0.107404 29.1069C-0.0129299 29.4078 -0.133264 30.0696 0.34807 30.3103C0.829403 30.5509 1.47118 30.7716 1.7319 30.8518Z" fill="#F50000"/>
</svg>
