<svg width="20" height="20" viewBox="0 0 20 20" fill="none" xmlns="http://www.w3.org/2000/svg">
<path d="M9.74956 15.5427H10.9321C10.9321 15.5427 11.2869 15.5427 11.5234 15.3139C11.6417 15.0851 11.6417 14.8562 11.6417 14.8562C11.6417 14.8562 11.6417 13.2544 12.3512 13.0256C13.0607 12.7967 14.0068 14.513 15.0711 15.1995C15.7806 15.6571 16.3719 15.5427 16.3719 15.5427H19.0918C19.0918 15.5427 20.5109 15.4283 19.8013 14.3986C19.8013 14.2842 19.4466 13.5977 17.791 12.1102C16.1354 10.6228 16.3719 10.8517 18.3823 8.22008C19.5648 6.61825 20.1561 5.5885 19.9196 5.24525C19.8013 4.902 18.8553 4.902 18.8553 4.902H15.7806C15.7806 4.902 15.5441 4.902 15.4259 5.01642C15.3076 5.13083 15.1893 5.35967 15.1893 5.35967C15.1893 5.35967 14.7163 6.61825 14.125 7.648C12.8242 9.82191 12.2329 9.93633 11.9964 9.82191C11.5234 9.47866 11.6417 8.56333 11.6417 7.87683C11.6417 5.70292 11.9964 4.78759 10.9321 4.55875C10.6956 4.55875 10.4591 4.44434 9.6313 4.44434C8.567 4.44434 7.62095 4.44434 7.14793 4.67317C6.6749 4.902 6.43839 5.24525 6.6749 5.24525C6.91141 5.24525 7.38444 5.35967 7.62095 5.70292C7.97572 6.16058 7.97572 7.07591 7.97572 7.07591C7.97572 7.07591 8.21223 9.59308 7.50269 9.93633C7.14793 10.1652 6.55664 9.70749 5.37408 7.648C4.7828 6.61825 4.30978 5.47408 4.30978 5.47408C4.30978 5.47408 4.07327 5.24525 3.83675 5.13084C3.7185 5.01642 3.48199 4.902 3.48199 4.902H0.643839C0.643839 4.902 0.170814 4.902 0.0525583 5.13084C-0.0656978 5.24525 0.0525583 5.5885 0.0525583 5.5885C0.0525583 5.5885 2.29942 10.7372 4.90106 13.2544C7.14792 15.6571 9.74956 15.5427 9.74956 15.5427Z" fill="#4D76A1"/>
</svg>
